<svg width="37" height="37" viewBox="0 0 37 37" fill="none" xmlns="http://www.w3.org/2000/svg">
<g clip-path="url(#clip0_2524_18)">
<path d="M24.7974 24.7382L18.7584 18.6992L12.7195 24.7382" stroke="black" stroke-opacity="0.4" stroke-width="1.50974" stroke-linecap="round" stroke-linejoin="round"/>
<path d="M18.7584 18.6992V32.2869" stroke="black" stroke-opacity="0.4" stroke-width="1.50974" stroke-linecap="round" stroke-linejoin="round"/>
<path d="M31.4251 28.3464C32.8976 27.5437 34.0608 26.2734 34.7312 24.7361C35.4016 23.1988 35.541 21.482 35.1273 19.8567C34.7136 18.2314 33.7705 16.7901 32.4467 15.7604C31.1229 14.7307 29.4939 14.1711 27.8168 14.17H25.9145C25.4576 12.4024 24.6058 10.7615 23.4234 9.37049C22.2409 7.9795 20.7585 6.87467 19.0877 6.13906C17.4168 5.40345 15.6008 5.05621 13.7764 5.12342C11.952 5.19064 10.1665 5.67058 8.55431 6.52716C6.94207 7.38373 5.545 8.59465 4.46812 10.0689C3.39124 11.5431 2.66257 13.2423 2.33691 15.0387C2.01124 16.835 2.09705 18.6819 2.58787 20.4403C3.0787 22.1988 3.96178 23.823 5.17072 25.1911" stroke="black" stroke-opacity="0.4" stroke-width="1.50974" stroke-linecap="round" stroke-linejoin="round"/>
<path d="M24.7974 24.7382L18.7584 18.6992L12.7195 24.7382" stroke="black" stroke-opacity="0.4" stroke-width="1.50974" stroke-linecap="round" stroke-linejoin="round"/>
</g>
<defs>
<clipPath id="clip0_2524_18">
<rect width="36.2338" height="36.2338" fill="white" transform="translate(0.641724 0.582031)"/>
</clipPath>
</defs>
</svg>
