<svg width="520" height="564" viewBox="0 0 520 564" fill="none" xmlns="http://www.w3.org/2000/svg">
<path d="M371.861 71.4734C407.056 101.622 437.929 133.503 463.554 171.969C489.179 210.781 510.172 256.178 517.273 306.425C524.374 356.673 517.582 411.426 497.205 460.981C477.138 510.189 437.796 502.743 395.5 521.803C363.5 544.445 316 564 263.5 564C214 564 182 560.912 139 537.241C102 504.821 41.5208 492.516 18.9835 454.397C-3.86244 416.278 0.151041 359.099 0.459771 301.92C0.7685 245.088 -2.62753 187.91 14.97 140.088C32.5676 92.2656 71.1588 53.8 114.998 29.1959C158.838 4.59181 208.235 -5.8043 252.692 3.20566C297.149 12.5622 336.666 41.3247 371.861 71.4734Z" fill="url(#paint0_linear_2420_218)"/>
<defs>
<linearGradient id="paint0_linear_2420_218" x1="260" y1="0" x2="260" y2="564" gradientUnits="userSpaceOnUse">
<stop stop-color="#9181F5"/>
<stop offset="1" stop-color="#620085" stop-opacity="0.49"/>
</linearGradient>
</defs>
</svg>
