<svg width="40" height="40" viewBox="0 0 40 40" fill="none" xmlns="http://www.w3.org/2000/svg">
<path fill-rule="evenodd" clip-rule="evenodd" d="M5.95424 4L3.75586 6.16251L32.0452 34L34.2436 31.8368L5.95424 4Z" fill="black" fill-opacity="0.6"/>
<path d="M8.40064 10.7324L10.4698 12.7685C8.20473 14.6663 6.40102 17.0286 5.23546 19.0954L5.23191 19.1024C8.47802 24.443 13.6286 29.4903 20.1294 28.7247C21.8841 28.518 23.521 27.9277 25.0166 27.0833L27.1114 29.1438C24.196 30.985 20.8541 31.9601 17.2332 31.4782C10.7041 30.6092 5.36536 25.3398 2 19.1513C3.58011 16.0227 5.74158 13.0297 8.40064 10.7324ZM13.1069 7.71494C14.9326 6.91447 16.9081 6.44369 19.0177 6.41016C19.1349 6.40946 20.5255 6.47442 21.1558 6.5764C21.5512 6.64066 21.9451 6.72099 22.3334 6.82087C28.5268 8.40853 33.1152 13.5606 36 18.8684C34.7897 21.2733 33.2046 23.6202 31.3143 25.6311L29.3076 23.6565C30.7039 22.1757 31.868 20.5273 32.7645 18.9284C32.7645 18.9284 31.863 17.5021 31.1795 16.6067C30.7401 16.0311 30.278 15.4723 29.7924 14.9338C29.4091 14.5091 27.9206 13.0667 27.5664 12.7664C25.1898 10.7554 22.3994 9.17757 19.0525 9.20411C17.7564 9.22436 16.5099 9.47582 15.3266 9.8991L13.1069 7.71494Z" fill="black" fill-opacity="0.6"/>
<path fill-rule="evenodd" clip-rule="evenodd" d="M14.0331 16.276L15.6305 17.8472L21.7789 23.8972C20.9569 24.3513 20.0086 24.6097 18.9999 24.6097C15.8588 24.6097 13.3091 22.1007 13.3091 19.0099C13.3091 18.0174 13.5724 17.0849 14.0331 16.276ZM18.8948 13.4116C18.9296 13.4109 18.9651 13.4102 18.9999 13.4102C22.1409 13.4102 24.6907 15.9198 24.6907 19.0099C24.6907 19.0448 24.6907 19.0791 24.69 19.1133L18.8948 13.4116Z" fill="black" fill-opacity="0.6"/>
</svg>
