<svg width="21" height="20" viewBox="0 0 21 20" fill="none" xmlns="http://www.w3.org/2000/svg">
<g clip-path="url(#clip0_2420_637)">
<path d="M14.902 7.61914H6.56868C5.41809 7.61914 4.48535 8.55188 4.48535 9.70247V15.9525C4.48535 17.1031 5.41809 18.0358 6.56868 18.0358H14.902C16.0526 18.0358 16.9854 17.1031 16.9854 15.9525V9.70247C16.9854 8.55188 16.0526 7.61914 14.902 7.61914Z" stroke="#1E285F" stroke-width="1.4" stroke-linecap="round" stroke-linejoin="round"/>
<path d="M10.7353 1.36914C9.63026 1.36914 8.57045 1.80813 7.78905 2.58953C7.00765 3.37093 6.56866 4.43074 6.56866 5.53581V7.61914H14.902V5.53581C14.902 4.43074 14.463 3.37093 13.6816 2.58953C12.9002 1.80813 11.8404 1.36914 10.7353 1.36914V1.36914Z" stroke="#1E285F" stroke-width="1.4" stroke-linecap="round" stroke-linejoin="round"/>
</g>
<defs>
<clipPath id="clip0_2420_637">
<rect width="20" height="20" fill="white" transform="translate(0.735352 0.00195312)"/>
</clipPath>
</defs>
</svg>
