<svg width="13" height="12" viewBox="0 0 13 12" fill="none" xmlns="http://www.w3.org/2000/svg">
<path d="M0.586914 1.61467C0.586914 1.22986 0.722053 0.912402 0.992319 0.66229C1.26259 0.412166 1.61394 0.287109 2.04637 0.287109C2.47109 0.287109 2.81471 0.410238 3.07726 0.656518C3.34753 0.910486 3.48267 1.24141 3.48267 1.6493C3.48267 2.01871 3.3514 2.32654 3.08884 2.57282C2.81858 2.82679 2.46336 2.95377 2.02321 2.95377H2.01162C1.58691 2.95377 1.24329 2.82679 0.980736 2.57282C0.718184 2.31885 0.586914 1.99947 0.586914 1.61467ZM0.737493 11.7157V4.00428H3.30892V11.7157H0.737493ZM4.73363 11.7157H7.30506V7.40976C7.30506 7.14039 7.33595 6.9326 7.39772 6.78638C7.50583 6.52472 7.66993 6.30345 7.89 6.1226C8.11008 5.94174 8.38614 5.85132 8.71819 5.85132C9.58306 5.85132 10.0155 6.43236 10.0155 7.59447V11.7157H12.5869V7.29432C12.5869 6.15531 12.3166 5.29144 11.7761 4.70269C11.2356 4.11395 10.5213 3.81958 9.63325 3.81958C8.63711 3.81958 7.86105 4.2467 7.30506 5.10096V5.12405H7.29348L7.30506 5.10096V4.00428H4.73363C4.74907 4.25055 4.7568 5.0163 4.7568 6.30154C4.7568 7.58677 4.74907 9.39147 4.73363 11.7157Z" fill="#555555"/>
</svg>
