<svg width="18" height="18" viewBox="0 0 18 18" fill="none" xmlns="http://www.w3.org/2000/svg">
<path d="M-0.00012207 2.41908C-0.00012207 1.84186 0.202586 1.36567 0.607986 0.990505C1.01339 0.615319 1.54042 0.427734 2.18907 0.427734C2.82614 0.427734 3.34157 0.612427 3.7354 0.981847C4.1408 1.3628 4.34351 1.85918 4.34351 2.47102C4.34351 3.02514 4.1466 3.48688 3.75277 3.8563C3.34737 4.23726 2.81455 4.42773 2.15432 4.42773H2.13694C1.49987 4.42773 0.98444 4.23726 0.590612 3.8563C0.196783 3.47535 -0.00012207 2.99627 -0.00012207 2.41908ZM0.225747 17.5706V6.00349H4.08289V17.5706H0.225747ZM6.21996 17.5706H10.0771V11.1117C10.0771 10.7077 10.1234 10.396 10.2161 10.1766C10.3783 9.78415 10.6244 9.45225 10.9545 9.18098C11.2846 8.90969 11.6987 8.77405 12.1968 8.77405C13.4941 8.77405 14.1427 9.64562 14.1427 11.3888V17.5706H17.9999V10.9386C17.9999 9.23003 17.5945 7.93422 16.7837 7.05111C15.9728 6.16799 14.9014 5.72643 13.5694 5.72643C12.0752 5.72643 10.9111 6.36713 10.0771 7.64851V7.68314H10.0597L10.0771 7.64851V6.00349H6.21996C6.24312 6.37289 6.2547 7.52152 6.2547 9.44938C6.2547 11.3772 6.24312 14.0843 6.21996 17.5706Z" fill="#0085FF"/>
</svg>
