<svg width="13" height="10" viewBox="0 0 13 10" fill="none" xmlns="http://www.w3.org/2000/svg">
<path d="M8.60495 0.136927V0.134766H9.16762L9.37321 0.175827C9.51027 0.202484 9.63471 0.237419 9.74652 0.280641C9.85834 0.323864 9.96654 0.374293 10.0711 0.43192C10.1757 0.489546 10.2706 0.548264 10.3557 0.608051C10.4401 0.667125 10.5159 0.729798 10.583 0.796069C10.6493 0.863063 10.7528 0.880352 10.8935 0.847935C11.0342 0.815519 11.1857 0.770492 11.348 0.712865C11.5103 0.655239 11.6708 0.590406 11.8295 0.518365C11.9882 0.446324 12.0849 0.400583 12.1195 0.381133C12.1534 0.36097 12.1714 0.350165 12.1736 0.348717L12.1757 0.345475L12.1866 0.340072L12.1974 0.334669L12.2082 0.329267L12.219 0.323864L12.2212 0.320622L12.2244 0.318461L12.2277 0.3163L12.2298 0.313058L12.2407 0.309816L12.2515 0.307655L12.2493 0.323864L12.2461 0.340072L12.2407 0.356281L12.2352 0.372489L12.2298 0.383295L12.2244 0.3941L12.219 0.410309C12.2154 0.421114 12.2118 0.435518 12.2082 0.453531C12.2046 0.471544 12.1703 0.543574 12.1054 0.669643C12.0405 0.795712 11.9593 0.923575 11.8619 1.05324C11.7646 1.18291 11.6773 1.28087 11.6001 1.34715C11.5222 1.41415 11.4706 1.46097 11.4453 1.48763C11.4201 1.515 11.3894 1.54021 11.3534 1.56327L11.2993 1.59892L11.2884 1.60433L11.2776 1.60973L11.2755 1.61297L11.2722 1.61513L11.269 1.61729L11.2668 1.62054L11.256 1.62594L11.2452 1.63134L11.243 1.63458L11.2398 1.63674L11.2365 1.63891L11.2343 1.64215L11.2322 1.64539L11.2289 1.64755L11.2257 1.64971L11.2235 1.65295H11.2776L11.5806 1.58812C11.7826 1.5449 11.9756 1.49267 12.1595 1.43144L12.4517 1.33419L12.4841 1.32338L12.5003 1.31798L12.5112 1.31258L12.522 1.30717L12.5328 1.30177L12.5436 1.29637L12.5653 1.29313L12.5869 1.29097V1.31258L12.5815 1.31474L12.5761 1.31798L12.5739 1.32122L12.5707 1.32338L12.5674 1.32554L12.5653 1.32878L12.5631 1.33203L12.5599 1.33419L12.5566 1.33635L12.5545 1.33959L12.5523 1.34283L12.549 1.34499L12.5436 1.3558L12.5382 1.3666L12.535 1.36877C12.5335 1.37093 12.4877 1.43215 12.3976 1.55246C12.3074 1.67348 12.2587 1.73471 12.2515 1.73616C12.2443 1.73832 12.2342 1.74912 12.2212 1.76857C12.2089 1.78874 12.1325 1.86907 11.9918 2.00954C11.8511 2.15001 11.7133 2.27499 11.5784 2.38449C11.4428 2.49471 11.3743 2.63014 11.3729 2.79078C11.3707 2.95071 11.3624 3.13153 11.348 3.33322C11.3335 3.53493 11.3065 3.75284 11.2668 3.98696C11.2271 4.22109 11.1658 4.48583 11.0829 4.78118C10.9999 5.07652 10.8989 5.36468 10.7799 5.64562C10.6609 5.92657 10.5364 6.1787 10.4066 6.40202C10.2767 6.62534 10.1577 6.81443 10.0495 6.96931C9.94129 7.12419 9.83129 7.27006 9.71947 7.40694C9.60766 7.54381 9.46628 7.69798 9.29531 7.86942C9.12362 8.04015 9.02985 8.1338 9.01398 8.15036C8.99739 8.16621 8.9267 8.22529 8.80188 8.32757C8.67781 8.43058 8.54435 8.53359 8.40152 8.63661C8.25942 8.73891 8.12884 8.82428 8.00982 8.89271C7.89079 8.96114 7.74725 9.0393 7.57916 9.12719C7.41181 9.2158 7.23074 9.29792 7.03597 9.37356C6.8412 9.4492 6.63561 9.51943 6.4192 9.58427C6.20278 9.6491 5.99359 9.69953 5.7916 9.73555C5.58963 9.77156 5.36059 9.80218 5.1045 9.82739L4.72037 9.86521V9.87062H4.01703V9.86521L3.92506 9.85981C3.86375 9.85621 3.81325 9.8526 3.77357 9.849C3.7339 9.84541 3.58421 9.82559 3.32452 9.78957C3.06482 9.75356 2.86104 9.71753 2.71315 9.68152C2.56528 9.6455 2.34525 9.57706 2.0531 9.47621C1.76094 9.37536 1.51099 9.27342 1.30324 9.17041C1.09621 9.06812 0.966359 9.00328 0.913695 8.97591C0.861756 8.94925 0.803325 8.91612 0.738402 8.8765L0.641017 8.81707L0.638864 8.81383L0.635607 8.81167L0.63236 8.8095L0.630196 8.80626L0.619376 8.80086L0.608555 8.79546L0.606402 8.79222L0.603145 8.79005L0.599899 8.78789L0.597735 8.78465L0.595581 8.78141L0.592324 8.77925H0.586914V8.75764L0.597735 8.7598L0.608555 8.76304L0.657248 8.76844C0.689709 8.77204 0.778081 8.77744 0.922351 8.78465C1.06663 8.79186 1.21992 8.79186 1.38223 8.78465C1.54453 8.77744 1.71046 8.76124 1.87997 8.73603C2.0495 8.71082 2.24968 8.66759 2.48051 8.60636C2.71136 8.54512 2.92344 8.47237 3.11677 8.38809C3.30938 8.30309 3.44643 8.23969 3.52795 8.19791C3.60874 8.15685 3.73209 8.08048 3.89801 7.96883L4.14688 7.80134L4.14904 7.7981L4.15229 7.79594L4.15555 7.79378L4.1577 7.79054L4.15986 7.78729L4.16311 7.78513L4.16637 7.78297L4.16852 7.77973L4.17934 7.77649L4.19016 7.77433L4.19232 7.76352L4.19557 7.75272L4.19883 7.75056L4.20098 7.74731L4.11442 7.74191C4.05671 7.73831 4.0008 7.7347 3.9467 7.73111C3.89259 7.72751 3.80784 7.7113 3.69241 7.68248C3.577 7.65366 3.45257 7.61044 3.31911 7.55281C3.18566 7.49519 3.05581 7.42674 2.92957 7.34751C2.80333 7.26827 2.71207 7.20234 2.6558 7.14976C2.60026 7.09789 2.52812 7.02442 2.43939 6.92933C2.35139 6.83353 2.27492 6.73519 2.21 6.63434C2.14507 6.53349 2.08304 6.41713 2.0239 6.28532L1.93407 6.08865L1.92866 6.07244L1.92325 6.05624L1.92001 6.04543L1.91784 6.03463L1.93407 6.03679L1.9503 6.04003L2.06933 6.05624C2.14869 6.06704 2.27313 6.07064 2.44264 6.06704C2.61217 6.06344 2.72938 6.05624 2.79431 6.04543C2.85923 6.03463 2.89891 6.02742 2.91333 6.02382L2.93498 6.01842L2.96203 6.01301L2.98908 6.00761L2.99124 6.00437L2.99449 6.00221L2.99775 6.00005L2.9999 5.99681L2.97826 5.9914L2.95662 5.986L2.93498 5.9806L2.91333 5.97519L2.89169 5.96979C2.87727 5.96619 2.85203 5.95899 2.81595 5.94818C2.77988 5.93738 2.6825 5.89775 2.52379 5.82932C2.3651 5.76089 2.23886 5.69425 2.14507 5.62942C2.05106 5.56439 1.96142 5.49328 1.87672 5.41654C1.79232 5.33874 1.69964 5.23861 1.59864 5.11615C1.49765 4.99369 1.40748 4.85141 1.32812 4.68933C1.24878 4.52724 1.18926 4.37237 1.14958 4.22469C1.11006 4.07788 1.08399 3.92778 1.07169 3.77625L1.0522 3.54934L1.06302 3.5515L1.07384 3.55474L1.08466 3.56014L1.09548 3.56554L1.1063 3.57095L1.11712 3.57635L1.28484 3.65199C1.39666 3.70242 1.53552 3.74564 1.70143 3.78166C1.86735 3.81767 1.96654 3.83749 1.999 3.84109L2.04769 3.84649H2.14507L2.14292 3.84325L2.13966 3.84109L2.13642 3.83893L2.13425 3.83569L2.1321 3.83244L2.12884 3.83028L2.1256 3.82812L2.12343 3.82488L2.11261 3.81948L2.10179 3.81407L2.09964 3.81083L2.09638 3.80867L2.09314 3.80651L2.09097 3.80327L2.08015 3.79787L2.06933 3.79246L2.06718 3.78922C2.06501 3.78777 2.03399 3.76472 1.97411 3.72006C1.91495 3.67468 1.85292 3.61597 1.788 3.54393C1.72307 3.47189 1.65815 3.39625 1.59323 3.31702C1.52818 3.2376 1.47025 3.15263 1.4201 3.06308C1.36961 2.97304 1.31622 2.85849 1.25995 2.71947C1.20441 2.58115 1.16221 2.44176 1.13335 2.30129C1.1045 2.16082 1.08827 2.02215 1.08466 1.88527C1.08106 1.7484 1.08466 1.63134 1.09548 1.53409C1.1063 1.43684 1.12794 1.32698 1.1604 1.20452C1.19287 1.08206 1.23976 0.952393 1.30107 0.815519L1.39305 0.610212L1.39846 0.594004L1.40387 0.577795L1.40712 0.575634L1.40928 0.572393L1.41144 0.569151L1.41469 0.56699L1.41794 0.569151L1.4201 0.572393L1.42226 0.575634L1.42551 0.577795L1.42876 0.579957L1.43092 0.583198L1.43308 0.58644L1.43633 0.588601L1.44174 0.599407L1.44715 0.610212L1.45041 0.612373L1.45256 0.615615L1.59864 0.777699C1.69602 0.885755 1.81144 1.00642 1.94489 1.13969C2.07836 1.27295 2.15229 1.34211 2.16672 1.34715C2.18115 1.35291 2.19918 1.36948 2.22082 1.39686C2.24246 1.42352 2.3146 1.48727 2.43723 1.58812C2.55987 1.68897 2.72037 1.80604 2.91874 1.9393C3.11713 2.07257 3.33714 2.20404 3.5788 2.33371C3.82047 2.46337 4.08016 2.58043 4.35788 2.68489C4.63561 2.78935 4.83038 2.85778 4.94219 2.89019C5.05401 2.92261 5.24516 2.96403 5.51568 3.01446C5.78619 3.06489 5.98999 3.09731 6.12704 3.11171C6.2641 3.12611 6.35789 3.1344 6.40837 3.13656L6.48412 3.13872L6.48197 3.12252L6.47871 3.10631L6.45707 2.97124C6.44264 2.88119 6.43543 2.75512 6.43543 2.59304C6.43543 2.43096 6.44805 2.28148 6.4733 2.14461C6.49855 2.00773 6.53643 1.86907 6.58691 1.72859C6.63741 1.58812 6.68683 1.47537 6.73516 1.39038C6.78422 1.30609 6.84841 1.20992 6.92776 1.10187C7.00712 0.993811 7.10992 0.882157 7.23615 0.766893C7.36239 0.65163 7.50666 0.548977 7.66897 0.458934C7.83128 0.368891 7.98097 0.300448 8.11802 0.253627C8.25509 0.206807 8.37051 0.176184 8.46428 0.16178C8.55806 0.147376 8.60495 0.139088 8.60495 0.136927Z" fill="#555555"/>
</svg>
