<svg width="18" height="16" viewBox="0 0 18 16" fill="none" xmlns="http://www.w3.org/2000/svg">
<path d="M12.0269 0.700507V0.697266H12.8709L13.1793 0.758858C13.3849 0.798844 13.5716 0.851246 13.7393 0.916079C13.907 0.980913 14.0693 1.05656 14.2262 1.143C14.3831 1.22944 14.5254 1.31751 14.6531 1.40719C14.7797 1.49581 14.8933 1.58981 14.9939 1.68922C15.0935 1.78971 15.2488 1.81565 15.4598 1.76702C15.6708 1.7184 15.898 1.65085 16.1414 1.56442C16.3849 1.47798 16.6257 1.38073 16.8637 1.27266C17.1018 1.1646 17.2468 1.09599 17.2987 1.06682C17.3496 1.03657 17.3766 1.02036 17.3799 1.01819L17.3831 1.01333L17.3993 1.00523L17.4156 0.997121L17.4318 0.989017L17.448 0.980913L17.4513 0.97605L17.4561 0.972809L17.461 0.969567L17.4643 0.964704L17.4805 0.959842L17.4967 0.9566L17.4935 0.980913L17.4886 1.00523L17.4805 1.02954L17.4724 1.05385L17.4643 1.07006L17.4561 1.08627L17.448 1.11058C17.4426 1.12679 17.4372 1.14839 17.4318 1.17541C17.4264 1.20243 17.375 1.31048 17.2776 1.49958C17.1802 1.68869 17.0585 1.88048 16.9124 2.07498C16.7663 2.26948 16.6354 2.41643 16.5196 2.51585C16.4028 2.61634 16.3254 2.68657 16.2875 2.72656C16.2497 2.76761 16.2037 2.80543 16.1496 2.84002L16.0684 2.8935L16.0522 2.90161L16.0359 2.90971L16.0327 2.91458L16.0278 2.91782L16.023 2.92106L16.0197 2.92592L16.0035 2.93403L15.9873 2.94213L15.984 2.94699L15.9791 2.95023L15.9743 2.95348L15.971 2.95834L15.9678 2.9632L15.9629 2.96644L15.958 2.96968L15.9548 2.97455H16.0359L16.4904 2.8773C16.7934 2.81246 17.0828 2.73413 17.3588 2.64227L17.797 2.4964L17.8457 2.48019L17.87 2.47209L17.8863 2.46398L17.9025 2.45588L17.9187 2.44777L17.935 2.43967L17.9674 2.43481L17.9999 2.43157V2.46398L17.9918 2.46722L17.9836 2.47209L17.9804 2.47695L17.9755 2.48019L17.9707 2.48343L17.9674 2.48829L17.9642 2.49316L17.9593 2.4964L17.9544 2.49964L17.9512 2.5045L17.948 2.50937L17.9431 2.51261L17.935 2.52882L17.9268 2.54502L17.922 2.54827C17.9198 2.55151 17.8511 2.64334 17.7158 2.82381C17.5806 3.00534 17.5075 3.09718 17.4967 3.09935C17.4859 3.10259 17.4708 3.1188 17.4513 3.14798C17.4329 3.17822 17.3182 3.29872 17.1072 3.50942C16.8962 3.72013 16.6895 3.9076 16.4872 4.07186C16.2838 4.23718 16.181 4.44032 16.1788 4.68129C16.1755 4.92118 16.1631 5.19241 16.1414 5.49495C16.1198 5.79752 16.0792 6.12438 16.0197 6.47556C15.9602 6.82675 15.8682 7.22386 15.7438 7.66688C15.6194 8.10991 15.4679 8.54214 15.2893 8.96355C15.1108 9.38497 14.9241 9.76316 14.7294 10.0981C14.5346 10.4331 14.3561 10.7168 14.1937 10.9491C14.0314 11.1814 13.8664 11.4002 13.6987 11.6055C13.531 11.8108 13.3189 12.0421 13.0625 12.2992C12.8049 12.5553 12.6643 12.6958 12.6405 12.7207C12.6156 12.7444 12.5096 12.8331 12.3223 12.9865C12.1362 13.141 11.936 13.2955 11.7218 13.45C11.5086 13.6035 11.3128 13.7315 11.1342 13.8342C10.9557 13.9368 10.7404 14.0541 10.4882 14.1859C10.2372 14.3188 9.96561 14.442 9.67346 14.5555C9.3813 14.6689 9.07292 14.7743 8.7483 14.8715C8.42368 14.9688 8.10989 15.0444 7.80691 15.0984C7.50395 15.1525 7.16039 15.1984 6.77625 15.2362L6.20006 15.2929V15.301H5.14505V15.2929L5.00709 15.2848C4.91513 15.2794 4.83938 15.274 4.77986 15.2686C4.72036 15.2632 4.49582 15.2335 4.10628 15.1795C3.71674 15.1255 3.41106 15.0714 3.18924 15.0174C2.96743 14.9634 2.63739 14.8607 2.19916 14.7094C1.76092 14.5582 1.38599 14.4053 1.07436 14.2507C0.763815 14.0973 0.569045 14 0.490049 13.959C0.412141 13.919 0.324495 13.8693 0.22711 13.8099L0.0810321 13.7207L0.0778022 13.7159L0.0729167 13.7126L0.0680474 13.7094L0.0648013 13.7045L0.0485704 13.6964L0.0323396 13.6883L0.0291097 13.6834L0.0242242 13.6802L0.0193549 13.677L0.0161088 13.6721L0.0128788 13.6672L0.00799335 13.664H-0.00012207V13.6316L0.0161088 13.6348L0.0323396 13.6397L0.105378 13.6478C0.154071 13.6532 0.286628 13.6613 0.503034 13.6721C0.719456 13.6829 0.949382 13.6829 1.19284 13.6721C1.43631 13.6613 1.68519 13.637 1.93946 13.5992C2.19375 13.5613 2.49402 13.4965 2.84027 13.4047C3.18654 13.3128 3.50467 13.2037 3.79466 13.0772C4.08357 12.9498 4.28915 12.8547 4.41144 12.792C4.53262 12.7304 4.71765 12.6158 4.96651 12.4484L5.33982 12.1971L5.34307 12.1923L5.34794 12.189L5.35282 12.1858L5.35605 12.1809L5.3593 12.1761L5.36417 12.1728L5.36906 12.1696L5.37229 12.1647L5.38852 12.1599L5.40475 12.1566L5.40799 12.1404L5.41286 12.1242L5.41775 12.121L5.42098 12.1161L5.29113 12.108C5.20457 12.1026 5.12071 12.0972 5.03955 12.0918C4.9584 12.0864 4.83126 12.0621 4.65813 12.0188C4.48501 11.9756 4.29836 11.9108 4.09816 11.8243C3.89799 11.7379 3.70322 11.6352 3.51385 11.5164C3.32451 11.3975 3.18761 11.2986 3.10321 11.2198C3.0199 11.1419 2.91169 11.0317 2.7786 10.8891C2.64659 10.7454 2.53189 10.5979 2.4345 10.4466C2.33712 10.2954 2.24407 10.1208 2.15535 9.92309L2.02062 9.6281L2.0125 9.60379L2.00439 9.57947L1.99952 9.56326L1.99627 9.54706L2.02062 9.5503L2.04496 9.55516L2.2235 9.57947C2.34254 9.59568 2.52919 9.60108 2.78347 9.59568C3.03776 9.59028 3.21358 9.57947 3.31097 9.56326C3.40835 9.54706 3.46787 9.53625 3.48951 9.53085L3.52197 9.52274L3.56255 9.51464L3.60312 9.50654L3.60637 9.50167L3.61124 9.49843L3.61612 9.49519L3.61935 9.49033L3.58689 9.48222L3.55443 9.47412L3.52197 9.46601L3.48951 9.45791L3.45705 9.44981C3.43541 9.44441 3.39754 9.4336 3.34343 9.41739C3.28933 9.40118 3.14326 9.34174 2.9052 9.2391C2.66716 9.13645 2.47779 9.03649 2.33712 8.93924C2.1961 8.84171 2.06163 8.73504 1.93459 8.61994C1.80799 8.50323 1.66896 8.35303 1.51746 8.16934C1.36598 7.98565 1.23073 7.77224 1.11169 7.52911C0.99267 7.28598 0.9034 7.05367 0.843882 6.83215C0.784602 6.61193 0.745493 6.38679 0.727036 6.1595L0.697804 5.81912L0.714035 5.82236L0.730266 5.82723L0.746496 5.83533L0.762727 5.84344L0.778958 5.85154L0.795189 5.85964L1.04677 5.9731C1.2145 6.04875 1.42279 6.11358 1.67165 6.1676C1.92054 6.22163 2.06931 6.25135 2.118 6.25675L2.19104 6.26485H2.33712L2.33389 6.25999L2.329 6.25675L2.32413 6.25351L2.32089 6.24865L2.31766 6.24378L2.31277 6.24054L2.3079 6.2373L2.30466 6.23244L2.28843 6.22433L2.2722 6.21623L2.26897 6.21137L2.26408 6.20812L2.25921 6.20488L2.25596 6.20002L2.23973 6.19192L2.2235 6.18381L2.22027 6.17895C2.21703 6.17678 2.17049 6.1422 2.08067 6.07522C1.99194 6.00714 1.89889 5.91908 1.8015 5.81102C1.70412 5.70296 1.60673 5.5895 1.50935 5.47064C1.41178 5.35151 1.32488 5.22406 1.24965 5.08974C1.17392 4.95468 1.09384 4.78285 1.00944 4.57432C0.926123 4.36685 0.862823 4.15776 0.819535 3.94705C0.776264 3.73634 0.751918 3.52834 0.746496 3.32303C0.741092 3.11772 0.746496 2.94213 0.762727 2.79625C0.778958 2.65038 0.81142 2.48559 0.860112 2.3019C0.908805 2.11821 0.979149 1.92371 1.07111 1.7184L1.20908 1.41044L1.21719 1.38612L1.22531 1.36181L1.23019 1.35857L1.23342 1.35371L1.23667 1.34884L1.24154 1.3456L1.24642 1.34884L1.24965 1.35371L1.2529 1.35857L1.25777 1.36181L1.26265 1.36505L1.26588 1.36991L1.26913 1.37478L1.274 1.37802L1.28211 1.39423L1.29023 1.41044L1.29512 1.41368L1.29834 1.41854L1.51746 1.66167C1.66354 1.82375 1.83667 2.00475 2.03685 2.20465C2.23704 2.40455 2.34794 2.50828 2.36958 2.51585C2.39123 2.52449 2.41827 2.54934 2.45073 2.59041C2.4832 2.63039 2.59141 2.72602 2.77535 2.8773C2.95931 3.02857 3.20006 3.20417 3.49762 3.40407C3.7952 3.60397 4.12522 3.80118 4.4877 3.99568C4.8502 4.19018 5.23974 4.36576 5.65633 4.52245C6.07292 4.67914 6.36508 4.78178 6.53279 4.83041C6.70052 4.87903 6.98725 4.94116 7.39302 5.01681C7.7988 5.09245 8.10449 5.14108 8.31007 5.16268C8.51566 5.18429 8.65634 5.19672 8.73207 5.19996L8.84569 5.2032L8.84245 5.17889L8.83757 5.15458L8.80511 4.95197C8.78347 4.81691 8.77265 4.6278 8.77265 4.38468C8.77265 4.14155 8.79159 3.91734 8.82945 3.71203C8.86734 3.50672 8.92414 3.29872 8.99988 3.08801C9.07563 2.8773 9.14975 2.70818 9.22224 2.58068C9.29583 2.45426 9.39213 2.31 9.51115 2.14792C9.63019 1.98583 9.78438 1.81835 9.97373 1.64546C10.1631 1.47256 10.3795 1.31858 10.623 1.18352C10.8664 1.04845 11.091 0.945789 11.2965 0.875558C11.5021 0.805327 11.6753 0.759392 11.8159 0.737787C11.9566 0.716181 12.0269 0.703749 12.0269 0.700507Z" fill="#6CCAFF"/>
</svg>
