<svg width="726" height="608" viewBox="0 0 726 608" fill="none" xmlns="http://www.w3.org/2000/svg">
<g opacity="0.5">
<path d="M726 534.309H0V534.716H726V534.309Z" fill="#EBEBEB"/>
<path d="M653.256 560.546H605.163V560.952H653.256V560.546Z" fill="#EBEBEB"/>
<path d="M480.931 564.97H468.309V565.376H480.931V564.97Z" fill="#EBEBEB"/>
<path d="M603.71 545.41H534.497V545.816H603.71V545.41Z" fill="#EBEBEB"/>
<path d="M110.552 548.148H76.1705V548.554H110.552V548.148Z" fill="#EBEBEB"/>
<path d="M161.009 548.148H123.48V548.554H161.009V548.148Z" fill="#EBEBEB"/>
<path d="M284.753 555.031H190.896V555.438H284.753V555.031Z" fill="#EBEBEB"/>
<path d="M344.144 461.615H63.7646C59.1951 461.615 55.4766 457.44 55.4766 452.31V9.87631C55.4766 4.7467 59.1951 0.572266 63.7646 0.572266H344.144C348.712 0.572266 352.431 4.7467 352.431 9.87631V452.31C352.431 457.44 348.712 461.615 344.144 461.615ZM63.7646 0.981395C59.3941 0.981395 55.8396 4.97163 55.8396 9.87794V452.312C55.8396 457.218 59.3941 461.209 63.7646 461.209H344.144C348.513 461.209 352.068 457.218 352.068 452.312V9.87631C352.068 4.97164 348.513 0.979766 344.144 0.979766L63.7646 0.981395Z" fill="#EBEBEB"/>
<path d="M658.206 461.615H377.828C373.258 461.615 369.541 457.44 369.541 452.31V9.87631C369.541 4.7467 373.26 0.572266 377.828 0.572266H658.206C662.777 0.572266 666.494 4.7467 666.494 9.87631V452.31C666.496 457.44 662.777 461.615 658.206 461.615ZM377.828 0.981395C373.459 0.981395 369.904 4.97163 369.904 9.87794V452.312C369.904 457.218 373.459 461.209 377.828 461.209H658.206C662.577 461.209 666.131 457.218 666.131 452.312V9.87631C666.131 4.97164 662.577 0.979766 658.206 0.979766L377.828 0.981395Z" fill="#EBEBEB"/>
<path d="M640.936 43.0305H411.561V534.309H640.936V43.0305Z" fill="#EBEBEB"/>
<path d="M623.875 59.0518H428.622V534.309H623.875V59.0518Z" fill="#F5F5F5"/>
<path d="M553.697 98.4717H498.803V115.512H553.697V98.4717Z" fill="white"/>
<path d="M578.435 267.671H608.217C610.785 267.671 612.867 270.008 612.867 272.891C612.867 275.775 610.785 278.112 608.217 278.112H578.435C575.866 278.112 573.784 275.775 573.784 272.891C573.784 270.008 575.866 267.671 578.435 267.671Z" fill="white"/>
<path d="M254.733 95.3111H102.192V233.322H254.733V95.3111Z" fill="#EBEBEB"/>
<path d="M246.544 224.129V104.498H110.371V224.129H246.544Z" fill="#FAFAFA"/>
<path d="M230.663 165.881V160.166H126.253V165.881H230.663Z" fill="#E0E0E0"/>
<path d="M230.663 178.899V173.184H126.252V178.899H230.663Z" fill="#E0E0E0"/>
<path d="M230.663 191.918V186.203H126.252V191.918H230.663Z" fill="#E0E0E0"/>
<path d="M204.486 204.936V199.221H152.431V204.936H204.486Z" fill="#E0E0E0"/>
<path d="M126.247 104.496C126.247 114.341 119.145 122.315 110.374 122.315C107.378 122.315 104.58 121.378 102.192 119.761V95.3111H123.988C125.428 97.9925 126.247 101.133 126.247 104.496Z" fill="#EBEBEB"/>
<path d="M254.735 95.3111V119.761C252.346 121.378 249.548 122.315 246.553 122.315C237.782 122.315 230.663 114.343 230.663 104.496C230.663 101.133 231.498 97.9925 232.937 95.3111H254.735Z" fill="#EBEBEB"/>
<path d="M126.247 224.137C126.247 227.499 125.43 230.64 123.989 233.322H102.192V208.854C104.58 207.237 107.378 206.299 110.374 206.299C119.145 206.299 126.247 214.291 126.247 224.137Z" fill="#EBEBEB"/>
<path d="M254.735 208.854V233.322H232.939C231.498 230.64 230.665 227.499 230.665 224.137C230.665 214.291 237.782 206.299 246.554 206.299C249.547 206.299 252.345 207.237 254.735 208.854Z" fill="#EBEBEB"/>
<path d="M191.816 136.064C193.013 127.788 188.006 119.991 180.635 118.648C173.263 117.305 166.317 122.924 165.12 131.2C163.924 139.476 168.93 147.273 176.302 148.616C183.674 149.959 190.62 144.339 191.816 136.064Z" fill="#E0E0E0"/>
<path d="M378.014 338.312H76.1705V350.501H378.014V338.312Z" fill="#EBEBEB"/>
<path d="M375.396 350.502H277.332V534.311H375.396V350.502Z" fill="#F5F5F5"/>
<path d="M177.964 350.502H79.9007V534.311H177.964V350.502Z" fill="#F5F5F5"/>
<path d="M83.249 350.502H79.9007V534.311H83.249V350.502Z" fill="#EBEBEB"/>
<path d="M280.68 350.502H277.332V534.311H280.68V350.502Z" fill="#EBEBEB"/>
<path d="M131.406 308.923H113.377L114.823 338.312H129.96L131.406 308.923Z" fill="#F0F0F0"/>
<path d="M287.979 325.563H193.761V338.312H287.979V325.563Z" fill="#F0F0F0"/>
<path d="M287.981 327.058H244.541V336.818H287.981V327.058Z" fill="#FAFAFA"/>
<path d="M363 607.925C518.483 607.925 644.527 599.662 644.527 589.468C644.527 579.275 518.483 571.012 363 571.012C207.517 571.012 81.4732 579.275 81.4732 589.468C81.4732 599.662 207.517 607.925 363 607.925Z" fill="#F5F5F5"/>
<path d="M494.705 475.339C520.107 475.339 540.7 452.222 540.7 423.706C540.7 395.189 520.107 372.072 494.705 372.072C469.303 372.072 448.71 395.189 448.71 423.706C448.71 452.222 469.303 475.339 494.705 475.339Z" fill="white"/>
<path d="M494.705 475.975C469.031 475.975 448.144 452.526 448.144 423.706C448.144 394.884 469.031 371.438 494.705 371.438C520.379 371.438 541.266 394.886 541.266 423.706C541.266 452.527 520.379 475.975 494.705 475.975ZM494.705 372.708C469.655 372.708 449.275 395.585 449.275 423.706C449.275 451.826 469.655 474.705 494.705 474.705C519.755 474.705 540.135 451.826 540.135 423.706C540.135 395.585 519.755 372.708 494.705 372.708Z" fill="#407BFF"/>
<path d="M502.107 394.432H487.301V452.98H502.107V394.432Z" fill="#407BFF"/>
<path d="M520.781 432.016V415.395H468.627V432.016H520.781Z" fill="#407BFF"/>
<path d="M183.116 33.3646L182.12 32.1763C188.912 25.0027 197.353 20.4371 206.528 18.9717L206.733 20.5854C197.855 22.0035 189.689 26.4224 183.116 33.3646Z" fill="#407BFF"/>
<path d="M172.374 51.1838L171.021 50.5921C172.46 46.4584 174.388 42.5448 176.752 38.9571L177.919 39.9286C175.632 43.3989 173.767 47.1854 172.374 51.1838Z" fill="#407BFF"/>
<path d="M212.879 113.619C234.881 113.619 252.718 93.5964 252.718 68.897C252.718 44.1975 234.881 24.1747 212.879 24.1747C190.877 24.1747 173.041 44.1975 173.041 68.897C173.041 93.5964 190.877 113.619 212.879 113.619Z" fill="#407BFF"/>
<path d="M236.628 48.7502C230.151 41.2065 219.451 41.1234 212.879 48.5008C206.309 41.125 195.609 41.2065 189.132 48.7502C182.773 56.1536 183.263 68.0804 189.74 75.3534L208.573 96.4945C210.951 99.1661 214.809 99.1661 217.189 96.4945L236.021 75.3534C242.497 68.082 242.986 56.1553 236.628 48.7502Z" fill="white"/>
<path d="M212.879 88.4456C212.862 88.4456 212.844 88.4456 212.827 88.4439C212.226 88.4195 211.7 87.9826 211.506 87.342L203.096 59.7478L199.579 71.2898C199.377 71.95 198.825 72.3933 198.205 72.3933H184.132C183.331 72.3933 182.68 71.6647 182.68 70.7633C182.68 69.8619 183.331 69.1333 184.132 69.1333H197.167L201.722 54.1846C201.924 53.5244 202.474 53.0811 203.096 53.0811C203.717 53.0811 204.269 53.5228 204.469 54.1846L213.024 82.2581L221.325 60.3052C221.542 59.7315 222.03 59.3484 222.583 59.3158C223.14 59.2734 223.659 59.6043 223.929 60.1471L228.404 69.135H241.624C242.426 69.135 243.076 69.8636 243.076 70.765C243.076 71.6663 242.426 72.395 241.624 72.395H227.552C227.026 72.395 226.541 72.0755 226.284 71.5604L222.84 64.6427L214.215 87.4529C213.987 88.056 213.46 88.4456 212.879 88.4456Z" fill="#407BFF"/>
<path d="M433.952 532.358H282.404C271.819 532.358 263.743 522.635 264.459 510.752L288.97 103.409C289.686 91.5263 298.93 81.8033 309.516 81.8033H461.064C471.649 81.8033 479.725 91.5263 479.009 103.409L454.498 510.752C453.782 522.635 444.536 532.358 433.952 532.358Z" fill="#263238"/>
<path d="M467.476 247.695H463.653C460.698 247.695 458.443 244.981 458.642 241.662L463.329 163.773C463.529 160.456 466.109 157.74 469.066 157.74H472.889C475.844 157.74 478.099 160.454 477.9 163.773L473.213 241.662C473.012 244.979 470.431 247.695 467.476 247.695Z" fill="#263238"/>
<path d="M286.745 195.735H282.929C280.512 195.735 278.669 193.515 278.832 190.801L280.525 162.673C280.688 159.959 282.799 157.738 285.216 157.738H289.032C291.45 157.738 293.294 159.959 293.13 162.673L291.437 190.801C291.274 193.515 289.163 195.735 286.745 195.735Z" fill="#407BFF"/>
<path d="M283.724 245.97H279.908C277.49 245.97 275.646 243.75 275.81 241.036L277.503 212.909C277.666 210.195 279.777 207.975 282.195 207.975H286.011C288.428 207.975 290.272 210.195 290.108 212.909L288.415 241.036C288.251 243.75 286.14 245.97 283.724 245.97Z" fill="#407BFF"/>
<path d="M430.743 532.358H279.195C268.61 532.358 260.534 522.635 261.25 510.752L285.761 103.409C286.475 91.5263 295.722 81.8033 306.307 81.8033H457.855C468.44 81.8033 476.516 91.5263 475.8 103.409L451.289 510.752C450.573 522.635 441.328 532.358 430.743 532.358Z" fill="#407BFF"/>
<path d="M262.838 506.27L286.766 108.628H474.167L450.238 506.27H262.838Z" fill="white"/>
<path d="M336.823 506.27L403.697 108.628H445.675L378.802 506.27H336.823Z" fill="white"/>
<path d="M305.116 506.27L371.991 108.628H393.254L326.381 506.27H305.116Z" fill="white"/>
<path d="M363.206 91.7936H399.75C401.055 91.7936 402.052 92.9933 401.963 94.457C401.874 95.9224 400.735 97.1204 399.429 97.1204H362.885C361.58 97.1204 360.584 95.9224 360.672 94.457C360.761 92.9933 361.901 91.7936 363.206 91.7936Z" fill="white"/>
<path d="M355.598 571.552L342.784 572.934L338.165 539.752L350.979 538.371L355.598 571.552Z" fill="#FFB573"/>
<path d="M341.326 565.904L354.732 561.217C355.235 561.041 355.731 561.299 355.927 561.837L360.307 573.799C360.761 575.04 360.093 576.598 358.931 576.979C354.08 578.573 349.472 578.997 343.622 581.814C336.78 585.108 333.911 589.439 326.561 589.439C321.283 589.439 320.099 584.016 322.325 583.258C332.454 579.806 331.158 576.968 338.54 568.06C339.343 567.092 340.266 566.273 341.326 565.904Z" fill="#263238"/>
<path d="M338.168 539.762L340.546 556.865L353.366 555.483L350.988 538.379L338.168 539.762Z" fill="black"/>
<path d="M347.435 120.612C330.633 118.394 313.922 119.887 297.152 123.538C291.466 124.775 287.044 130.035 286.391 136.519C284.572 154.545 282.5 194.953 290.599 255.224C290.6 255.23 359.248 248.736 359.248 248.736C359.39 237.794 352.457 187.972 358.187 136.247C359.048 128.459 354.282 121.515 347.435 120.612Z" fill="white"/>
<path d="M307.455 136.063L309.916 141.587C310.163 142.139 310.655 142.501 311.204 142.532L313.859 142.685C314.333 142.713 314.802 142.553 315.184 142.234L319.764 138.408L314.107 133.791L307.455 136.063Z" fill="#263238"/>
<path d="M313.957 141.116C311.978 140.288 310.859 140.834 310.859 140.834C308.692 149.388 306.321 173.954 306.085 184.814C312.645 206.268 314.788 208.445 314.788 208.445L318.122 182.614C318.122 182.614 314.39 156.213 313.957 141.116Z" fill="#263238"/>
<path d="M332.901 83.4464C331.335 94.074 330.003 113.502 336.786 120.364C331.814 126.226 325.293 133.021 314.113 133.789C302.932 134.557 304.659 125.864 307.493 121.22C317.928 118.099 317.425 109.357 315.376 101.195L332.901 83.4464Z" fill="#FFB573"/>
<path d="M339.643 119.427C338.765 118.982 337.815 118.692 337.178 118.527C336.754 118.413 336.314 118.607 336.099 119.029C335.014 121.09 331.73 130.262 314.108 133.791C317.004 135.709 320.86 141.685 322.524 144.54C327.808 141.463 341.558 132.25 340.244 120.337C340.188 119.945 339.974 119.59 339.643 119.427Z" fill="#F5F5F5"/>
<path d="M307.589 121.704C307.734 120.891 307.114 120.182 306.398 120.335C305.668 120.49 304.943 120.752 304.598 120.883C304.457 120.935 304.349 121.019 304.226 121.124C302.877 122.526 295.515 134.449 302.404 144.104C303.937 141.486 308.865 135.526 314.105 133.791C309.151 131.272 306.704 126.604 307.589 121.704Z" fill="#F5F5F5"/>
<path d="M325.756 90.6884L315.383 101.186C315.874 103.117 316.267 105.08 316.442 106.992C320.439 106.224 325.824 101.119 326.125 96.3902C326.275 94.0316 326.126 91.774 325.756 90.6884Z" fill="black"/>
<path d="M311.903 51.3256C302.964 55.2473 302.373 63.5017 303.257 72.5302C304.142 81.5588 312.804 75.5751 314.746 69.9483C316.686 64.3232 324.29 45.8895 311.903 51.3256Z" fill="#263238"/>
<path d="M340.432 69.3028C337.949 83.5001 337.131 91.9338 329.889 98.4701C318.994 108.304 304.217 99.8034 302.916 85.1579C301.744 71.976 306.002 50.9735 319.019 46.8349C331.843 42.7583 342.914 55.1072 340.432 69.3028Z" fill="#FFB573"/>
<path d="M339.912 81.0633C329.264 81.6974 331.522 74.9052 333.458 71.0111C335.393 67.117 331.441 60.6883 334.022 57.337C329.424 59.3892 324.596 57.6989 318.454 52.9001C313.687 49.1756 307.725 64.0901 301.917 56.6133C296.432 49.5505 301.528 38.9082 314.704 37.1886C327.879 35.4706 330.284 45.9547 338.943 45.0207C347.603 44.0884 344.59 52.0835 342.896 53.7135C350.156 54.2596 354.109 62.0477 339.912 81.0633Z" fill="#263238"/>
<path d="M341.282 54.7111C341.282 54.7111 346.727 51.7689 346.807 44.297C349.631 49.958 349.316 56.3786 341.282 54.7111Z" fill="#263238"/>
<path d="M313.633 84.47C317.56 85.1758 320.163 82.8204 320.282 82.708C320.414 82.5857 320.435 82.3706 320.33 82.2255C320.226 82.0804 320.032 82.0625 319.9 82.1831C319.87 82.2108 316.835 84.9411 312.51 83.4708C312.348 83.417 312.177 83.5181 312.123 83.7006C312.071 83.8816 312.158 84.0723 312.318 84.1277C312.772 84.2825 313.211 84.3934 313.633 84.47Z" fill="#263238"/>
<path d="M343.013 85.3795C340.885 88.4847 337.705 90.2288 334.891 90.6347C330.658 91.2426 329.258 86.8237 331.034 82.6982C332.634 78.985 336.764 74.1928 340.723 75.4854C344.625 76.7585 345.448 81.8294 343.013 85.3795Z" fill="#FFB573"/>
<path d="M338.814 394.079C339.319 351.516 344.162 250.163 344.162 250.163L290.642 255.226C290.642 255.226 301.287 359.692 307.714 403.109C314.391 448.253 334.882 553.98 334.882 553.98L356.608 551.903C356.608 551.903 348.704 426.987 338.814 394.079Z" fill="#263238"/>
<path d="M333.565 554.653L359.393 552.198L358.378 542.836L331.47 544.86L333.565 554.653Z" fill="#407BFF"/>
<path d="M321.361 70.1521C321.222 71.3159 320.565 72.1912 319.895 72.1064C319.224 72.0217 318.792 71.0111 318.932 69.8473C319.071 68.6834 319.728 67.8081 320.398 67.8929C321.069 67.976 321.5 68.9883 321.361 70.1521Z" fill="#263238"/>
<path d="M309.511 69.0502C309.372 70.214 308.716 71.0893 308.045 71.0046C307.374 70.9198 306.943 69.9092 307.082 68.7454C307.221 67.5816 307.878 66.7063 308.549 66.791C309.219 66.8742 309.651 67.8864 309.511 69.0502Z" fill="#263238"/>
<path d="M312.854 70.483C312.854 70.483 309.604 76.1032 306.601 78.6933C308.141 80.5107 311.331 80.0087 311.331 80.0087L312.854 70.483Z" fill="#ED893E"/>
<path d="M301.984 69.4055C301.772 71.2605 303.468 72.8139 305.751 73.1431C308.033 73.4724 310.185 72.0396 310.398 70.1847" fill="#407BFF"/>
<path d="M315.736 71.1333C315.424 72.972 317.035 74.6362 319.296 75.1187C321.557 75.6012 323.781 74.3167 324.094 72.4781" fill="#407BFF"/>
<path d="M320.195 75.5686C319.938 75.5686 319.677 75.549 319.414 75.5131C318.238 75.3436 317.171 74.8057 316.41 74.0021C315.618 73.1659 315.247 72.1407 315.364 71.1154C315.268 71.029 314.447 70.6655 313.034 70.4601C311.612 70.2548 310.732 70.3721 310.583 70.5188C310.38 72.4976 308.175 73.8766 305.708 73.5343C304.531 73.3648 303.465 72.8269 302.703 72.0233C301.911 71.1871 301.54 70.1618 301.657 69.1366L302.351 69.236C302.263 70.007 302.559 70.7927 303.183 71.4512C303.838 72.1423 304.768 72.6052 305.798 72.7536C307.878 73.0616 309.738 71.9695 309.925 70.3314C310.028 69.4267 311.718 69.4805 313.115 69.681C314.515 69.8831 316.163 70.3134 316.058 71.2165C315.97 71.9874 316.266 72.7731 316.889 73.4316C317.544 74.1228 318.473 74.5857 319.504 74.734C320.533 74.8856 321.538 74.6982 322.328 74.2173C323.08 73.7576 323.543 73.0812 323.63 72.3118L323.676 71.9222L341.602 74.5091L341.513 75.2898L324.256 72.7992C324.05 73.6598 323.495 74.3998 322.662 74.9084C321.948 75.3404 321.092 75.5686 320.195 75.5686Z" fill="#263238"/>
<path d="M325.913 65.0388C326.015 65.0355 326.116 65.0045 326.212 64.9426C326.505 64.7486 326.609 64.3264 326.443 64.0004C324.792 60.7323 321.991 60.5677 321.874 60.5628C321.538 60.5465 321.249 60.8431 321.227 61.2229C321.206 61.6011 321.458 61.9206 321.792 61.9369C321.884 61.9418 324.066 62.0966 325.383 64.7046C325.495 64.9246 325.701 65.0436 325.913 65.0388Z" fill="#263238"/>
<path d="M305.682 63.1969C305.878 63.2164 306.08 63.1284 306.217 62.9426C307.947 60.5742 310.125 60.7633 310.217 60.7714C310.549 60.804 310.851 60.5269 310.891 60.1504C310.93 59.7739 310.695 59.4397 310.362 59.4022C310.242 59.3924 307.454 59.1137 305.286 62.0819C305.07 62.3786 305.101 62.8106 305.358 63.0485C305.454 63.1366 305.568 63.1838 305.682 63.1969Z" fill="#263238"/>
<path d="M383.395 387.216C372.286 323.131 369.798 273.006 359.247 248.736L307.401 255.224C307.401 255.224 338.291 350.73 353.366 391.489C369.036 433.869 399.966 506.27 399.966 506.27H425.863C425.863 506.27 401.69 416.408 383.395 387.216Z" fill="#263238"/>
<path d="M219.053 144.593L213.486 140.614C211.598 139.264 209.104 139.59 207.59 141.381L203.788 145.882C202.056 147.932 202.227 151.147 204.169 153.005L206.888 155.608C209.245 157.866 211.999 159.54 214.97 160.524L223.174 163.24L228.556 156.754C230.149 149.916 219.053 144.593 219.053 144.593Z" fill="#FFB573"/>
<path d="M302.006 141.553C299.974 147.127 297.982 152.306 295.815 157.61C293.651 162.87 291.447 168.125 289.029 173.331C286.62 178.545 284.02 183.701 281.09 188.878C279.607 191.462 278.023 194.04 276.205 196.624C274.361 199.204 272.357 201.806 269.522 204.399C268.084 205.685 266.413 206.997 264.158 208.11C263.558 208.383 262.986 208.645 262.314 208.867L261.302 209.181C260.929 209.289 260.265 209.419 259.754 209.493C257.611 209.768 255.871 209.452 254.462 209.056C251.661 208.207 249.962 207.03 248.386 205.956C246.844 204.857 245.58 203.752 244.395 202.645C239.759 198.216 236.281 193.724 232.856 189.153C229.47 184.596 226.278 180.012 223.219 175.344C220.13 170.661 217.197 166.073 214.185 161.157L230.241 149.523C235.27 158.596 241.022 167.711 247.021 175.848C250.04 179.851 253.251 183.778 256.275 186.588C257.016 187.271 257.742 187.874 258.318 188.27C258.861 188.673 259.397 188.842 259.025 188.687C258.828 188.625 258.347 188.485 257.448 188.593C257.245 188.603 256.894 188.699 256.824 188.715C256.786 188.717 256.748 188.725 256.714 188.739C256.644 188.77 256.644 188.746 256.628 188.766C256.658 188.731 257.077 188.457 257.575 187.972C258.604 186.992 259.917 185.339 261.148 183.501C262.394 181.646 263.618 179.571 264.798 177.403C267.174 173.059 269.314 168.311 271.364 163.476C273.397 158.624 275.351 153.662 277.137 148.606C278.912 143.588 280.686 138.361 282.145 133.412L302.006 141.553Z" fill="#407BFF"/>
<path d="M302.006 141.553C299.974 147.127 297.982 152.306 295.815 157.61C293.651 162.87 291.447 168.125 289.029 173.331C286.62 178.545 284.02 183.701 281.09 188.878C279.607 191.462 278.023 194.04 276.205 196.624C274.361 199.204 272.357 201.806 269.522 204.399C268.084 205.685 266.413 206.997 264.158 208.11C263.558 208.383 262.986 208.645 262.314 208.867L261.302 209.181C260.929 209.289 260.265 209.419 259.754 209.493C257.611 209.768 255.871 209.452 254.462 209.056C251.661 208.207 249.962 207.03 248.386 205.956C246.844 204.857 245.58 203.752 244.395 202.645C239.759 198.216 236.281 193.724 232.856 189.153C229.47 184.596 226.278 180.012 223.219 175.344C220.13 170.661 217.197 166.073 214.185 161.157L230.241 149.523C235.27 158.596 241.022 167.711 247.021 175.848C250.04 179.851 253.251 183.778 256.275 186.588C257.016 187.271 257.742 187.874 258.318 188.27C258.861 188.673 259.397 188.842 259.025 188.687C258.828 188.625 258.347 188.485 257.448 188.593C257.245 188.603 256.894 188.699 256.824 188.715C256.786 188.717 256.748 188.725 256.714 188.739C256.644 188.77 256.644 188.746 256.628 188.766C256.658 188.731 257.077 188.457 257.575 187.972C258.604 186.992 259.917 185.339 261.148 183.501C262.394 181.646 263.618 179.571 264.798 177.403C267.174 173.059 269.314 168.311 271.364 163.476C273.397 158.624 275.351 153.662 277.137 148.606C278.912 143.588 280.686 138.361 282.145 133.412L302.006 141.553Z" fill="white"/>
<path d="M340.031 116.534C334.584 127.87 315.2 171.416 312.854 198.242C304.268 173.858 306.147 119.711 306.147 119.711C301.926 119.836 294.187 121.94 288.324 124.521C284.528 126.191 281.92 130.252 281.614 134.8C280.724 148.024 279.488 179.509 283.969 218.702C289.989 271.349 295.63 353.213 295.63 353.213C295.63 353.213 343.617 350.97 380.637 342.202C376.119 301.964 360.668 234.513 360.529 216.446C360.35 193.202 360.831 147.755 361.487 128.786C361.682 123.173 358.307 118.376 353.472 117.262C346.829 115.732 340.031 116.534 340.031 116.534Z" fill="#407BFF"/>
<path d="M340.031 116.534C334.584 127.87 315.2 171.416 312.854 198.242C304.268 173.858 306.147 119.711 306.147 119.711C301.926 119.836 294.187 121.94 288.324 124.521C284.528 126.191 281.92 130.252 281.614 134.8C280.724 148.024 279.488 179.509 283.969 218.702C289.989 271.349 295.63 353.213 295.63 353.213C295.63 353.213 343.617 350.97 380.637 342.202C376.119 301.964 360.668 234.513 360.529 216.446C360.35 193.198 360.831 147.735 361.487 128.775C361.674 123.36 358.576 118.519 353.926 117.371C347.144 115.696 340.031 116.534 340.031 116.534Z" fill="white"/>
<path d="M328.717 344.483C320.385 292.867 313.771 217.123 313.233 208.004L313.986 207.947C314.525 217.059 321.134 292.748 329.46 344.333L328.717 344.483Z" fill="white"/>
<path d="M324.56 252.655H280.313C278.576 252.655 276.85 251.061 276.477 249.111L261.672 171.9C261.299 169.95 262.413 168.356 264.149 168.356H308.396C310.133 168.356 311.859 169.95 312.232 171.9L327.037 249.111C327.41 251.061 326.295 252.655 324.56 252.655Z" fill="white"/>
<path d="M323.186 253.362H278.197C276.432 253.362 274.676 251.741 274.297 249.759L259.244 171.251C258.864 169.269 259.998 167.647 261.764 167.647H306.752C308.518 167.647 310.273 169.269 310.652 171.251L325.705 249.759C326.086 251.741 324.952 253.362 323.186 253.362Z" fill="#407BFF"/>
<path d="M328.345 209L317.147 208.531C315.8 208.474 314.457 208.736 313.205 209.302L307.425 211.908C305.058 212.976 303.983 215.96 305.043 218.524L307.37 224.15C308.296 226.389 310.568 227.589 312.74 226.986L319.148 225.204C319.148 225.204 331.177 224.125 331.606 217.075L328.345 209Z" fill="#FFB573"/>
<path d="M359.252 123.515C362.031 128.333 364.561 132.876 367.07 137.663C369.57 142.407 372.021 147.205 374.333 152.164C376.63 157.14 378.838 162.229 380.825 167.708C381.801 170.472 382.715 173.339 383.473 176.497C384.196 179.69 384.899 183.072 384.752 187.698L384.738 188.123L384.729 188.335C384.729 188.386 384.723 188.482 384.706 188.656C384.649 189.245 384.568 189.836 384.466 190.415C384.356 190.933 384.228 191.45 384.086 191.959C383.942 192.462 383.788 192.86 383.623 193.31C382.968 194.973 382.201 196.272 381.506 197.256C380.065 199.313 378.745 200.568 377.476 201.762C374.946 204.047 372.585 205.656 370.24 207.154C365.567 210.091 360.993 212.379 356.408 214.551C351.841 216.738 347.275 218.725 342.688 220.603C338.085 222.521 333.582 224.283 328.813 226.08L323.283 205.543C327.583 204.202 332.077 202.565 336.412 200.904C340.761 199.191 345.065 197.382 349.248 195.444C353.402 193.47 357.48 191.333 361.073 189.028C362.848 187.889 364.523 186.66 365.679 185.585C366.234 185.082 366.685 184.534 366.685 184.469C366.73 184.415 366.578 184.56 366.405 185.008C366.344 185.147 366.324 185.245 366.263 185.429C366.199 185.616 366.152 185.814 366.122 186.011C366.062 186.26 366.025 186.521 366.01 186.78C366.006 186.873 366.004 186.885 366.003 186.852L365.998 186.816L365.991 186.743C366 186.034 365.736 184.128 365.204 182.202C364.681 180.231 363.957 178.089 363.134 175.924C361.464 171.571 359.383 167.139 357.124 162.77C354.857 158.397 352.456 154.035 349.91 149.756C347.372 145.522 344.682 141.163 342.019 137.254L359.252 123.515Z" fill="#407BFF"/>
<path d="M359.252 123.515C362.031 128.333 364.561 132.876 367.07 137.663C369.57 142.407 372.021 147.205 374.333 152.164C376.63 157.14 378.838 162.229 380.825 167.708C381.801 170.472 382.715 173.339 383.473 176.497C384.196 179.69 384.899 183.072 384.752 187.698L384.738 188.123L384.729 188.335C384.729 188.386 384.723 188.482 384.706 188.656C384.649 189.245 384.568 189.836 384.466 190.415C384.356 190.933 384.228 191.45 384.086 191.959C383.942 192.462 383.788 192.86 383.623 193.31C382.968 194.973 382.201 196.272 381.506 197.256C380.065 199.313 378.745 200.568 377.476 201.762C374.946 204.047 372.585 205.656 370.24 207.154C365.567 210.091 360.993 212.379 356.408 214.551C351.841 216.738 347.275 218.725 342.688 220.603C338.085 222.521 333.582 224.283 328.813 226.08L323.283 205.543C327.583 204.202 332.077 202.565 336.412 200.904C340.761 199.191 345.065 197.382 349.248 195.444C353.402 193.47 357.48 191.333 361.073 189.028C362.848 187.889 364.523 186.66 365.679 185.585C366.234 185.082 366.685 184.534 366.685 184.469C366.73 184.415 366.578 184.56 366.405 185.008C366.344 185.147 366.324 185.245 366.263 185.429C366.199 185.616 366.152 185.814 366.122 186.011C366.062 186.26 366.025 186.521 366.01 186.78C366.006 186.873 366.004 186.885 366.003 186.852L365.998 186.816L365.991 186.743C366 186.034 365.736 184.128 365.204 182.202C364.681 180.231 363.957 178.089 363.134 175.924C361.464 171.571 359.383 167.139 357.124 162.77C354.857 158.397 352.456 154.035 349.91 149.756C347.372 145.522 344.682 141.163 342.019 137.254L359.252 123.515Z" fill="white"/>
<path d="M344.561 180.073C344.371 180.073 344.184 179.968 344.075 179.773C343.903 179.471 343.983 179.07 344.252 178.88L346.521 177.261C350.867 174.161 353.031 168.49 352.034 162.821L347.477 136.896C346.597 131.892 342.973 129.96 340.135 129.826C337.291 129.694 333.542 131.279 332.293 136.182L325.826 161.592C324.412 167.148 326.147 173 330.247 176.498L332.388 178.324C332.64 178.541 332.689 178.946 332.498 179.232C332.306 179.517 331.946 179.571 331.691 179.356L329.55 177.53C325.069 173.706 323.172 167.311 324.719 161.236L331.187 135.826C332.366 131.196 335.91 128.366 340.185 128.534C344.471 128.736 347.779 131.919 348.608 136.643L353.166 162.568C354.255 168.767 351.889 174.963 347.14 178.353L344.87 179.972C344.773 180.042 344.667 180.073 344.561 180.073Z" fill="#263238"/>
<path d="M348.042 137.416C348.033 137.416 348.026 137.416 348.017 137.416L331.714 136.65C331.396 136.635 331.149 136.333 331.162 135.976C331.175 135.619 331.454 135.386 331.762 135.357L348.065 136.123C348.383 136.138 348.63 136.439 348.616 136.796C348.603 137.143 348.349 137.416 348.042 137.416Z" fill="#263238"/>
<path d="M340.118 129.825C339.806 129.825 339.549 129.546 339.543 129.194C339.475 126.007 338.634 120.279 335.917 119.029C335.623 118.894 335.482 118.516 335.602 118.185C335.723 117.854 336.06 117.696 336.354 117.831C340.379 119.685 340.676 128.196 340.696 129.161C340.703 129.52 340.452 129.815 340.134 129.823C340.128 129.825 340.122 129.825 340.118 129.825Z" fill="#263238"/>
<path d="M290.24 151.976C290.203 151.976 290.165 151.973 290.126 151.963C289.813 151.893 289.612 151.553 289.674 151.202C291.585 140.493 299.516 123.577 306.498 118.633C306.77 118.446 307.124 118.534 307.293 118.835C307.462 119.138 307.383 119.538 307.113 119.729C300.362 124.509 292.669 140.995 290.804 151.458C290.749 151.765 290.509 151.976 290.24 151.976Z" fill="#263238"/>
<path d="M295.007 153.662C294.101 156.255 292.131 157.813 290.606 157.142C289.083 156.47 288.582 153.823 289.49 151.23C290.396 148.637 292.366 147.078 293.891 147.75C295.415 148.423 295.915 151.07 295.007 153.662Z" fill="white"/>
<path d="M333.333 178.901C333.288 180.118 332.671 181.078 331.955 181.046C331.239 181.013 330.696 179.998 330.741 178.78C330.786 177.563 331.403 176.603 332.119 176.635C332.835 176.668 333.379 177.683 333.333 178.901Z" fill="white"/>
<path d="M345.856 179.488C345.811 180.705 345.194 181.665 344.478 181.633C343.762 181.598 343.219 180.585 343.264 179.367C343.309 178.149 343.927 177.189 344.642 177.222C345.358 177.255 345.901 178.27 345.856 179.488Z" fill="white"/>
<path d="M592.078 156.893L590.629 156.785C591.061 149.592 588.943 142.803 584.665 137.667C580.398 132.54 574.529 129.719 568.139 129.719V128.089C574.934 128.089 581.18 131.095 585.725 136.552C590.28 142.02 592.536 149.245 592.078 156.893Z" fill="#407BFF"/>
<path d="M590.181 164.261L589.383 177.723L590.832 177.831L591.63 164.369L590.181 164.261Z" fill="#407BFF"/>
<path d="M568.137 133.791H468.007C456.878 133.791 447.156 144.012 446.404 156.506L445.492 171.651C444.74 184.145 453.232 194.366 464.361 194.366H564.491L583.917 207.828L587.006 156.506C587.758 144.014 579.267 133.791 568.137 133.791Z" fill="#407BFF"/>
<path d="M563.055 155.479H470.253V159.264H563.055V155.479Z" fill="white"/>
<path d="M562.248 168.896H493.347V172.681H562.248V168.896Z" fill="white"/>
<path d="M417.422 214.797H519.82C531.201 214.797 539.886 225.251 539.117 238.027L538.185 253.514C537.416 266.292 527.474 276.745 516.093 276.745H413.695L392.172 290.512L395.33 238.027C396.098 225.251 406.04 214.797 417.422 214.797Z" fill="white"/>
<path d="M417.422 214.797H519.82C531.201 214.797 539.886 225.251 539.117 238.027L538.185 253.514C537.416 266.292 527.474 276.745 516.093 276.745H413.695L392.172 290.512L395.33 238.027C396.098 225.251 406.04 214.797 417.422 214.797Z" fill="#407BFF"/>
<path d="M514.622 236.978H419.719V240.849H514.622V236.978Z" fill="#407BFF"/>
<path d="M456.394 250.696H418.893V254.567H456.394V250.696Z" fill="#407BFF"/>
<path d="M489.543 250.696H465.591V254.567H489.543V250.696Z" fill="#407BFF"/>
</g>
</svg>
