<svg width="17" height="16" viewBox="0 0 17 16" fill="none" xmlns="http://www.w3.org/2000/svg">
<path d="M10.0467 12.7132C10.0467 13.1198 9.77998 13.6532 9.43998 13.8598L8.5 14.4665C7.62667 15.0065 6.41333 14.3998 6.41333 13.3198V9.75317C6.41333 9.27984 6.14667 8.67318 5.87333 8.33984L3.31331 5.6465C2.97331 5.3065 2.70667 4.70651 2.70667 4.29985V2.75317C2.70667 1.94651 3.31334 1.33984 4.05334 1.33984H12.9467C13.6867 1.33984 14.2933 1.9465 14.2933 2.6865V4.1665C14.2933 4.7065 13.9533 5.37984 13.62 5.71318" stroke="#4C4C4C" stroke-width="1.5" stroke-miterlimit="10" stroke-linecap="round" stroke-linejoin="round"/>
<path d="M11.2133 11.0128C12.3915 11.0128 13.3466 10.0576 13.3466 8.87943C13.3466 7.70123 12.3915 6.74609 11.2133 6.74609C10.0351 6.74609 9.07996 7.70123 9.07996 8.87943C9.07996 10.0576 10.0351 11.0128 11.2133 11.0128Z" stroke="#4C4C4C" stroke-width="1.5" stroke-linecap="round" stroke-linejoin="round"/>
<path d="M13.7466 11.4128L13.08 10.7461" stroke="#4C4C4C" stroke-width="1.5" stroke-linecap="round" stroke-linejoin="round"/>
</svg>
