<svg width="15" height="10" viewBox="0 0 15 10" fill="none" xmlns="http://www.w3.org/2000/svg">
<path d="M7.87935 9.65475L5.17122 9.60413C4.29439 9.5865 3.41537 9.6217 2.55573 9.43898C1.24802 9.16598 1.15538 7.82738 1.05844 6.70454C0.924864 5.12598 0.976575 3.51877 1.22865 1.95339C1.37095 1.07504 1.93097 0.55093 2.79703 0.493897C5.72059 0.286913 8.6636 0.311443 11.5807 0.408008C11.8888 0.416861 12.199 0.465244 12.5028 0.520318C14.0023 0.78893 14.0389 2.30586 14.1361 3.58283C14.233 4.87298 14.1921 6.16975 14.0068 7.45112C13.8581 8.51205 13.5737 9.40175 12.3735 9.48763C10.8696 9.59995 9.40031 9.69036 7.89224 9.66157C7.89231 9.65475 7.88364 9.65475 7.87935 9.65475ZM6.28723 6.96876C7.4205 6.30382 8.53214 5.64996 9.65893 4.98948C8.52355 4.32454 7.41402 3.67068 6.28723 3.0102V6.96876Z" fill="#555555"/>
</svg>
